<svg xmlns="http://www.w3.org/2000/svg" width="96" height="96" viewBox="0 0 96 96" role="img" aria-labelledby="title desc">
  <title id="title">Arduino IDE</title>
  <desc id="desc">Stylized Arduino infinity logo.</desc>
  <rect width="96" height="96" rx="22" fill="#e8fbfb"/>
  <path d="M36 35c-12 0-21 8-21 18s9 18 21 18c9 0 15-7 22-18-7-11-13-18-22-18Zm24 0c-9 0-15 7-22 18 7 11 13 18 22 18 12 0 21-8 21-18s-9-18-21-18Z" fill="none" stroke="#00979d" stroke-width="7" stroke-linecap="round" stroke-linejoin="round"/>
  <path d="M27 53h17M35 45v16M53 53h17" stroke="#00979d" stroke-width="5" stroke-linecap="round"/>
  <circle cx="66" cy="53" r="2.8" fill="#00979d"/>
</svg>
