<svg xmlns="http://www.w3.org/2000/svg" viewBox="0 0 96 96" role="img" aria-labelledby="title">
  <title id="title">GitHub</title>
  <rect width="96" height="96" rx="22" fill="#181717"/>
  <path d="M48 17c-17 0-31 14-31 31 0 14 9 26 22 30 2 .4 3-1 3-2v-7c-9 2-11-4-11-4-2-4-4-5-4-5-3-2 .2-2 .2-2 4 .3 6 4 6 4 3 5 8 4 10 3 .3-2 1-3 2-4-7-1-14-4-14-16 0-4 1-7 4-10-.4-1-2-5 .4-10 0 0 3-1 10 4a34 34 0 0 1 18 0c7-5 10-4 10-4 2 5 1 9 .4 10 2 3 4 6 4 10 0 12-7 15-14 16 1 1 2 3 2 6v9c0 1 1 2 3 2 13-4 22-16 22-30 0-17-14-31-31-31Z" fill="#fff"/>
</svg>
