<svg xmlns="http://www.w3.org/2000/svg" width="96" height="96" viewBox="0 0 96 96" role="img" aria-labelledby="title desc">
  <title id="title">Python</title>
  <desc id="desc">Stylized Python programming logo.</desc>
  <rect width="96" height="96" rx="22" fill="#f7fbff"/>
  <path d="M48 13c-18 0-24 6-24 18v11h28c8 0 14 6 14 14v6h8c11 0 17-7 17-18S84 26 73 26H54v-5c0-4-2-8-6-8Z" fill="#3776ab"/>
  <path d="M48 83c18 0 24-6 24-18V54H44c-8 0-14-6-14-14v-6h-8C11 34 5 41 5 52s7 18 18 18h19v5c0 4 2 8 6 8Z" fill="#ffd43b"/>
  <circle cx="39" cy="28" r="4" fill="#ffffff"/>
  <circle cx="57" cy="68" r="4" fill="#2b2b2b"/>
</svg>
