<svg xmlns="http://www.w3.org/2000/svg" viewBox="0 0 512 512">
  <rect width="512" height="512" rx="112" fill="#1E3C2B"/>
  <circle cx="392" cy="122" r="70" fill="#D3A474" opacity=".14"/>
  <path d="M136 159h240c27 0 49 22 49 49v151c0 27-22 49-49 49H136c-27 0-49-22-49-49V208c0-27 22-49 49-49Z" fill="#F0E3D3"/>
  <path d="M116 159v-13c0-23 18-41 41-41h180c21 0 39 16 41 37H151c-14 0-26 6-35 17Z" fill="#D3A474"/>
  <path d="M305 247h120v79H305c-22 0-40-18-40-40s18-39 40-39Z" fill="#D3A474"/>
  <circle cx="314" cy="286" r="13" fill="#1E3C2B"/>
  <path d="M151 217v83c0 41 22 63 58 63s58-22 58-63v-83h-34v81c0 22-8 33-24 33s-24-11-24-33v-81h-34Z" fill="#1E3C2B"/>
</svg>
